<?xml version="1.0" standalone="no"?>
<!DOCTYPE svg PUBLIC "-//W3C//DTD SVG 20010904//EN"
 "http://www.w3.org/TR/2001/REC-SVG-20010904/DTD/svg10.dtd">
<svg version="1.0" xmlns="http://www.w3.org/2000/svg"
 width="728.000000pt" height="508.000000pt" viewBox="0 0 728.000000 508.000000"
 preserveAspectRatio="xMidYMid meet">
<metadata>
Created by potrace 1.16, written by Peter Selinger 2001-2019
</metadata>
<g transform="translate(0.000000,508.000000) scale(0.100000,-0.100000)"
fill="#000000" stroke="none">
<path d="M5335 3963 c-168 -21 -281 -64 -800 -298 -77 -35 -248 -111 -380
-170 -276 -123 -224 -118 -465 -42 -80 25 -273 84 -430 132 -157 47 -334 102
-395 120 -161 49 -191 56 -283 65 -160 14 -224 1 -427 -90 -137 -62 -138 -203
-3 -293 29 -19 204 -126 388 -237 184 -111 339 -206 344 -210 4 -4 -11 -17
-35 -28 -24 -11 -127 -56 -229 -102 -102 -45 -269 -120 -372 -166 -103 -46
-196 -84 -206 -84 -21 0 -103 56 -344 236 -221 165 -230 169 -348 169 -110 -1
-168 -22 -219 -80 -65 -75 -64 -153 7 -305 21 -47 65 -143 97 -215 244 -551
248 -561 305 -613 91 -84 219 -117 425 -109 336 13 710 122 1320 383 143 61
261 111 261 110 1 -1 -54 -296 -122 -656 -74 -396 -124 -680 -124 -719 0 -101
48 -161 130 -161 42 0 203 63 273 107 87 55 181 164 245 288 29 55 171 358
297 635 63 138 242 527 255 555 6 11 59 125 119 254 l108 233 364 177 c677
329 993 520 1079 649 40 60 40 109 0 178 -75 132 -284 250 -500 284 -62 9
-270 11 -335 3z m272 -203 c99 -14 216 -52 279 -91 52 -33 94 -68 94 -79 0
-15 -249 -179 -392 -258 -130 -72 -540 -278 -769 -387 l-247 -117 -70 -151
c-67 -144 -168 -364 -225 -488 -14 -30 -69 -149 -122 -265 -53 -115 -124 -267
-157 -339 -245 -530 -272 -581 -354 -659 -47 -45 -111 -83 -121 -72 -7 7 -15
-34 161 900 75 396 134 721 132 723 -3 4 -269 -111 -406 -175 -160 -76 -532
-226 -715 -288 -468 -161 -813 -209 -980 -135 -51 22 -49 20 -160 271 -42 96
-99 224 -126 283 -27 59 -49 109 -49 111 0 2 -21 48 -46 101 -32 68 -42 101
-35 108 13 13 96 14 113 0 61 -47 414 -307 455 -335 71 -49 143 -72 200 -64
25 3 79 21 121 40 239 106 473 209 762 338 179 80 408 183 510 228 102 45 250
112 330 147 201 91 219 99 270 121 25 11 173 77 330 147 157 70 305 137 330
147 25 11 63 28 85 38 22 10 90 40 151 68 272 122 451 158 651 132z m-2999
-200 c60 -10 149 -35 422 -120 69 -21 224 -68 345 -105 121 -37 227 -69 235
-72 11 -4 9 -8 -10 -16 -60 -26 -234 -103 -343 -153 -66 -30 -124 -54 -129
-54 -6 0 -139 78 -297 173 -515 313 -512 311 -493 321 63 36 153 45 270 26z"/>
</g>
</svg>
